<svg width="37" height="26" viewBox="0 0 37 26" fill="none" xmlns="http://www.w3.org/2000/svg">
<path fill-rule="evenodd" clip-rule="evenodd" d="M21.8013 3.9827C21.8013 6.17619 20.0707 7.96289 17.9288 7.96289C15.7946 7.96289 14.0563 6.17619 14.0563 3.9827C14.0563 1.7892 15.7946 0.00250244 17.9288 0.00250244C20.0707 0.00250244 21.8013 1.7892 21.8013 3.9827ZM15.9343 3.9827C15.9343 5.11534 16.8268 6.03262 17.9288 6.03262C19.0308 6.03262 19.9232 5.11534 19.9232 3.9827C19.9232 2.85006 19.0308 1.93278 17.9288 1.93278C16.8268 1.93278 15.9343 2.85006 15.9343 3.9827Z" fill="#1F2128"/>
<path d="M9.53994 4.93987C9.17519 5.64977 8.41466 6.11239 7.561 6.01668C6.5987 5.91299 5.8304 5.07547 5.7916 4.07843C5.73728 2.9059 6.64526 1.93279 7.7783 1.93279C8.37586 1.93279 8.91134 2.20399 9.27608 2.62673C9.53218 2.92186 9.9202 3.03353 10.2772 2.88995C10.3082 2.87932 10.3393 2.86868 10.3703 2.85805C10.9368 2.63471 11.1308 1.90089 10.7428 1.42231C9.93573 0.441215 8.68628 -0.133081 7.32043 0.0264458C5.55103 0.241807 4.13085 1.70945 3.92907 3.52806C3.67298 5.92096 5.4967 7.9629 7.7783 7.9629C9.26056 7.9629 10.5488 7.10146 11.2007 5.8412C11.5266 5.21904 11.0688 4.46129 10.3781 4.46129C10.3729 4.46129 10.3677 4.46129 10.3626 4.46129C10.0211 4.45332 9.70291 4.63677 9.53994 4.93987Z" fill="#825EF6"/>
<path fill-rule="evenodd" clip-rule="evenodd" d="M15.7481 20.1986C15.6291 20.3688 15.4946 20.5283 15.3445 20.6772L11.5186 24.6095C10.7115 25.439 9.64829 25.9176 8.51525 25.9575C8.45316 25.9628 8.39366 25.9655 8.33675 25.9655C7.12611 25.9655 6.00083 25.4869 5.14718 24.6095L3.63387 23.0541L1.32123 20.6772C-0.44041 18.8665 -0.44041 15.9312 1.32123 14.1206L5.14718 10.1883C6.00083 9.31886 7.12611 8.83231 8.33675 8.83231C9.53964 8.83231 10.6727 9.31886 11.5186 10.1883L15.3445 14.1206C16.9587 15.7797 17.0906 18.388 15.7481 20.1986ZM12.9155 17.9572C13.1793 17.5824 13.1483 17.0559 12.8146 16.7209L8.98864 12.7886C8.81015 12.6051 8.56957 12.5094 8.33675 12.5094C8.09618 12.5094 7.8556 12.6051 7.67711 12.7886L3.85117 16.7209C3.48642 17.0958 3.48642 17.702 3.85117 18.0769L5.5352 19.8157L7.67711 22.0092C7.76247 22.097 7.8556 22.1687 7.96425 22.2086C8.08066 22.2645 8.20483 22.2884 8.32899 22.2884C8.32899 22.2884 8.33158 22.2884 8.33675 22.2884C8.35745 22.2884 8.37814 22.2884 8.39884 22.2884C8.40919 22.2884 8.42212 22.2857 8.43764 22.2804C8.46351 22.2804 8.48938 22.2778 8.51525 22.2724C8.52559 22.2671 8.53594 22.2645 8.54629 22.2645C8.55664 22.2591 8.5644 22.2565 8.56957 22.2565C8.58509 22.2565 8.60061 22.2512 8.61613 22.2405C8.62131 22.2405 8.62648 22.2405 8.63166 22.2405C8.63683 22.2352 8.63942 22.2326 8.63942 22.2326C8.64976 22.2326 8.65752 22.2299 8.6627 22.2246C8.67822 22.2193 8.69115 22.2139 8.7015 22.2086C8.72219 22.2033 8.7403 22.1953 8.75582 22.1847C8.76617 22.1794 8.77652 22.1741 8.78687 22.1687C8.80756 22.1581 8.82567 22.1448 8.84119 22.1289C8.8981 22.097 8.94725 22.0571 8.98864 22.0092L12.8146 18.0769C12.856 18.0397 12.8896 17.9998 12.9155 17.9572Z" fill="#825EF6"/>
<path d="M15.748 20.1987C15.629 20.3688 15.4945 20.5284 15.3444 20.6773L11.5185 24.6096C10.7114 25.4391 9.6482 25.9177 8.51517 25.9576C8.45308 25.9629 8.39358 25.9656 8.33667 25.9656C7.12603 25.9656 6.00075 25.487 5.14709 24.6096L3.63379 23.0542C4.13822 22.0651 4.77459 20.9724 5.53512 19.8158L7.67703 22.0093C7.76239 22.0971 7.85552 22.1688 7.96417 22.2087C8.08057 22.2646 8.20474 22.2885 8.32891 22.2885C8.32891 22.2885 8.3315 22.2885 8.33667 22.2885C8.35737 22.2885 8.37806 22.2885 8.39876 22.2885C8.4091 22.2885 8.42204 22.2858 8.43756 22.2805C8.46343 22.2752 8.4893 22.2725 8.51517 22.2725C8.52551 22.2672 8.53586 22.2646 8.54621 22.2646C8.55655 22.2592 8.56431 22.2566 8.56949 22.2566C8.58501 22.2566 8.60053 22.2513 8.61605 22.2406C8.62122 22.2406 8.6264 22.2406 8.63157 22.2406C8.63675 22.2353 8.63933 22.2327 8.63933 22.2327C8.64968 22.2327 8.65744 22.23 8.66261 22.2247C8.67814 22.2194 8.69107 22.214 8.70142 22.2087C8.72211 22.2034 8.74022 22.1954 8.75574 22.1848C8.76609 22.1795 8.77644 22.1742 8.78678 22.1688C8.80748 22.1582 8.82559 22.1449 8.84111 22.129C8.89802 22.0971 8.94717 22.0572 8.98856 22.0093L12.8145 18.077C12.8559 18.0398 12.8895 17.9999 12.9154 17.9573L13.6759 18.077L15.748 20.1987Z" fill="url(#paint0_linear_721_25629)"/>
<path d="M25.1772 14.1206L21.3512 10.1883C20.4976 9.31889 19.3723 8.83234 18.1616 8.83234C16.9588 8.83234 15.8335 9.31889 14.9798 10.1883L13.2492 11.967L15.3446 14.1206C15.4946 14.2749 15.6291 14.4344 15.7481 14.5992L17.5098 12.7886C17.6883 12.6051 17.9288 12.5094 18.1616 12.5094C18.4022 12.5094 18.6428 12.6051 18.8213 12.7886L22.6472 16.7209C23.012 17.0958 23.012 17.702 22.6472 18.0769L18.8213 22.0093C18.6428 22.1927 18.4022 22.2884 18.1616 22.2884C17.9288 22.2884 17.6883 22.1927 17.5098 22.0093L15.7481 20.2066C15.7481 20.2013 15.7481 20.1986 15.7481 20.1986L13.6838 18.0769C13.4898 17.8855 13.4044 17.6302 13.4122 17.375C13.2415 17.1915 13.0785 17.0161 12.9155 16.8406C12.8845 16.798 12.8509 16.7582 12.8146 16.7209L12.3412 16.2344C12.3257 16.2184 12.3102 16.2025 12.2947 16.1865C11.4333 15.2772 10.7503 14.5992 10.7503 14.5992C10.1528 15.3969 9.83459 16.378 9.83459 17.3989C9.83459 18.4279 10.1528 19.401 10.7503 20.1986C10.8745 20.3688 11.009 20.5283 11.1539 20.6772L14.0098 23.6125L14.9798 24.6095C15.8335 25.4869 16.9588 25.9655 18.1616 25.9655C19.3723 25.9655 20.4976 25.4869 21.3512 24.6095L25.1772 20.6772C26.9388 18.8666 26.9388 15.9313 25.1772 14.1206Z" fill="#1F2128"/>
<path d="M35.0954 14.1206L31.2694 10.1883C30.8193 9.72569 30.2838 9.36675 29.694 9.14341C29.1896 8.93603 28.6464 8.83234 28.0876 8.83234C26.877 8.83234 25.7517 9.31889 24.898 10.1883L23.1286 12.0149L25.1774 14.1206C25.343 14.2908 25.4904 14.4663 25.6198 14.6471L27.428 12.7886C27.6065 12.6051 27.847 12.5094 28.0876 12.5094C28.3204 12.5094 28.561 12.6051 28.7395 12.7886L32.5654 16.7209C32.9302 17.0958 32.9302 17.702 32.5654 18.0769L28.7395 22.0093C28.561 22.1927 28.3204 22.2884 28.0876 22.2884C27.847 22.2884 27.6065 22.1927 27.428 22.0093L25.806 20.3422L25.6198 20.1508L23.602 18.0769C23.4313 17.9014 23.3382 17.6861 23.3304 17.4627C23.1364 17.2554 22.9424 17.0559 22.7561 16.8565C22.7251 16.8087 22.6889 16.7635 22.6475 16.7209L21.6852 15.7319L21.5067 15.5484L21.3359 15.3729C21.0178 15.0459 20.7772 14.7986 20.6841 14.7029L20.6297 14.6471C19.4579 16.2743 19.4579 18.5236 20.6297 20.1508C20.7643 20.3369 20.9117 20.5124 21.0721 20.6772L23.1286 22.7909L23.9823 23.6683L24.898 24.6095C25.7517 25.4869 26.877 25.9655 28.0876 25.9655C29.2905 25.9655 30.4235 25.4869 31.2694 24.6095L35.0954 20.6772C36.857 18.8666 36.857 15.9313 35.0954 14.1206Z" fill="#42D3D8"/>
<path d="M28.0873 12.5094C27.8467 12.5094 27.6061 12.6051 27.4276 12.7886L25.6194 14.6471C25.4901 14.4663 25.3426 14.2908 25.1771 14.1206L23.1283 12.0149L24.8977 10.1883C25.7514 9.31889 26.8766 8.83234 28.0873 8.83234C28.646 8.83234 29.1893 8.93603 29.6937 9.14341C31.4398 10.8982 28.0873 12.5094 28.0873 12.5094Z" fill="url(#paint1_linear_721_25629)"/>
<path d="M26.318 3.01756C26.6905 2.30767 27.451 1.85301 28.2969 1.94075C29.267 2.04445 30.0275 2.88994 30.0741 3.88698C30.1284 5.0595 29.2127 6.03262 28.0796 6.03262C27.4898 6.03262 26.9543 5.76142 26.5896 5.3307C26.3335 5.04355 25.9377 4.93188 25.5885 5.06748C25.5574 5.07811 25.5264 5.09141 25.4954 5.10736C24.9211 5.3307 24.7271 6.06452 25.1229 6.5431C25.9222 7.52419 27.1716 8.09849 28.5453 7.93099C30.3147 7.7236 31.7348 6.25595 31.9288 4.42937C32.1927 2.03647 30.3612 0.00250244 28.0796 0.00250244C26.6051 0.00250244 25.3091 0.863947 24.665 2.11623C24.339 2.74636 24.7969 3.49614 25.4876 3.50412C25.4928 3.50412 25.4979 3.50412 25.5031 3.50412C25.8446 3.50412 26.1628 3.32864 26.318 3.01756Z" fill="#42D3D8"/>
<defs>
<linearGradient id="paint0_linear_721_25629" x1="15.5703" y1="21.5063" x2="11.3045" y2="26.8425" gradientUnits="userSpaceOnUse">
<stop stop-color="#4223ED"/>
<stop offset="0.994" stop-color="#825EF6"/>
</linearGradient>
<linearGradient id="paint1_linear_721_25629" x1="28.5476" y1="15.0512" x2="26.3889" y2="17.2516" gradientUnits="userSpaceOnUse">
<stop stop-color="#42D3D8"/>
<stop offset="0.994" stop-color="#11AFB7"/>
</linearGradient>
</defs>
</svg>
