<svg width="147" height="30" viewBox="0 0 147 30" fill="none" xmlns="http://www.w3.org/2000/svg">
<path fill-rule="evenodd" clip-rule="evenodd" d="M21.8017 6.98264C21.8017 9.17613 20.0711 10.9628 17.9291 10.9628C15.795 10.9628 14.0566 9.17613 14.0566 6.98264C14.0566 4.78914 15.795 3.00244 17.9291 3.00244C20.0711 3.00244 21.8017 4.78914 21.8017 6.98264ZM15.9347 6.98264C15.9347 8.11528 16.8272 9.03256 17.9291 9.03256C19.0311 9.03256 19.9236 8.11528 19.9236 6.98264C19.9236 5.85 19.0311 4.93272 17.9291 4.93272C16.8272 4.93272 15.9347 5.85 15.9347 6.98264Z" fill="#825EF6"/>
<path d="M9.54018 7.93987C9.17544 8.64977 8.4149 9.11239 7.56125 9.01668C6.59894 8.91299 5.83065 8.07547 5.79185 7.07843C5.73752 5.9059 6.6455 4.93279 7.77854 4.93279C8.3761 4.93279 8.91158 5.20399 9.27632 5.62673C9.53242 5.92186 9.92045 6.03353 10.2774 5.88995C10.3085 5.87932 10.3395 5.86868 10.3706 5.85805C10.9371 5.63471 11.1311 4.90089 10.7431 4.42231C9.93597 3.44122 8.68653 2.86692 7.32067 3.02645C5.55127 3.24181 4.13109 4.70945 3.92932 6.52806C3.67322 8.92096 5.49695 10.9629 7.77854 10.9629C9.2608 10.9629 10.5491 10.1015 11.2009 8.8412C11.5269 8.21904 11.069 7.46129 10.3783 7.46129C10.3731 7.46129 10.368 7.46129 10.3628 7.46129C10.0213 7.45332 9.70315 7.63677 9.54018 7.93987Z" fill="#1F2128"/>
<path fill-rule="evenodd" clip-rule="evenodd" d="M15.7481 23.1988C15.6291 23.369 15.4946 23.5285 15.3445 23.6774L11.5186 27.6097C10.7115 28.4393 9.64829 28.9178 8.51525 28.9577C8.45316 28.963 8.39366 28.9657 8.33675 28.9657C7.12611 28.9657 6.00083 28.4871 5.14718 27.6097L3.63387 26.0543L1.32123 23.6774C-0.44041 21.8668 -0.44041 18.9315 1.32123 17.1208L5.14718 13.1885C6.00083 12.3191 7.12611 11.8325 8.33675 11.8325C9.53964 11.8325 10.6727 12.3191 11.5186 13.1885L15.3445 17.1208C16.9587 18.7799 17.0906 21.3882 15.7481 23.1988ZM12.9155 20.9575C13.1793 20.5826 13.1483 20.0561 12.8146 19.7211L8.98864 15.7888C8.81015 15.6053 8.56957 15.5096 8.33675 15.5096C8.09618 15.5096 7.8556 15.6053 7.67711 15.7888L3.85117 19.7211C3.48642 20.096 3.48642 20.7022 3.85117 21.0771L5.5352 22.8159L7.67711 25.0094C7.76247 25.0972 7.8556 25.169 7.96425 25.2088C8.08066 25.2647 8.20483 25.2886 8.329 25.2886C8.329 25.2886 8.33158 25.2886 8.33675 25.2886C8.35745 25.2886 8.37814 25.2886 8.39884 25.2886C8.40919 25.2886 8.42212 25.2859 8.43764 25.2806C8.46351 25.2806 8.48938 25.278 8.51525 25.2727C8.52559 25.2673 8.53594 25.2647 8.54629 25.2647C8.55664 25.2594 8.5644 25.2567 8.56957 25.2567C8.58509 25.2567 8.60061 25.2514 8.61613 25.2407C8.62131 25.2407 8.62648 25.2407 8.63166 25.2407C8.63683 25.2354 8.63942 25.2328 8.63942 25.2328C8.64976 25.2328 8.65752 25.2301 8.6627 25.2248C8.67822 25.2195 8.69115 25.2142 8.7015 25.2088C8.72219 25.2035 8.7403 25.1956 8.75582 25.1849C8.76617 25.1796 8.77652 25.1743 8.78687 25.169C8.80756 25.1583 8.82567 25.145 8.84119 25.1291C8.8981 25.0972 8.94725 25.0573 8.98864 25.0094L12.8146 21.0771C12.856 21.0399 12.8896 21 12.9155 20.9575Z" fill="#1F2128"/>
<path d="M15.748 23.1989C15.629 23.369 15.4945 23.5286 15.3444 23.6774L11.5185 27.6098C10.7114 28.4393 9.6482 28.9179 8.51517 28.9578C8.45308 28.9631 8.39358 28.9658 8.33667 28.9658C7.12603 28.9658 6.00075 28.4872 5.14709 27.6098L3.63379 26.0544C4.13822 25.0653 4.77459 23.9726 5.53512 22.816L7.67703 25.0095C7.76239 25.0972 7.85552 25.169 7.96417 25.2089C8.08057 25.2647 8.20474 25.2887 8.32891 25.2887C8.32891 25.2887 8.3315 25.2887 8.33667 25.2887C8.35737 25.2887 8.37806 25.2887 8.39876 25.2887C8.4091 25.2887 8.42204 25.286 8.43756 25.2807C8.46343 25.2754 8.4893 25.2727 8.51517 25.2727C8.52551 25.2674 8.53586 25.2647 8.54621 25.2647C8.55655 25.2594 8.56431 25.2568 8.56949 25.2568C8.58501 25.2568 8.60053 25.2514 8.61605 25.2408C8.62122 25.2408 8.6264 25.2408 8.63157 25.2408C8.63675 25.2355 8.63933 25.2328 8.63933 25.2328C8.64968 25.2328 8.65744 25.2302 8.66261 25.2249C8.67814 25.2195 8.69107 25.2142 8.70142 25.2089C8.72211 25.2036 8.74022 25.1956 8.75574 25.185C8.76609 25.1797 8.77644 25.1743 8.78678 25.169C8.80748 25.1584 8.82559 25.1451 8.84111 25.1291C8.89802 25.0972 8.94717 25.0574 8.98856 25.0095L12.8145 21.0772C12.8559 21.0399 12.8895 21.0001 12.9154 20.9575L13.6759 21.0772L15.748 23.1989Z" fill="url(#paint0_linear_6502_515)"/>
<path d="M25.1775 17.1208L21.3516 13.1885C20.4979 12.3191 19.3727 11.8325 18.162 11.8325C16.9591 11.8325 15.8339 12.3191 14.9802 13.1885L13.2496 14.9672L15.3449 17.1208C15.495 17.275 15.6295 17.4346 15.7485 17.5994L17.5101 15.7888C17.6886 15.6053 17.9292 15.5096 18.162 15.5096C18.4026 15.5096 18.6432 15.6053 18.8217 15.7888L22.6476 19.7211C23.0123 20.096 23.0123 20.7022 22.6476 21.0771L18.8217 25.0094C18.6432 25.1929 18.4026 25.2886 18.162 25.2886C17.9292 25.2886 17.6886 25.1929 17.5101 25.0094L15.7485 23.2068C15.7485 23.2015 15.7485 23.1988 15.7485 23.1988L13.6842 21.0771C13.4902 20.8857 13.4048 20.6304 13.4126 20.3752C13.2418 20.1917 13.0789 20.0162 12.9159 19.8408C12.8848 19.7982 12.8512 19.7583 12.815 19.7211L12.3416 19.2346C12.3261 19.2186 12.3106 19.2027 12.295 19.1867C11.4336 18.2774 10.7507 17.5994 10.7507 17.5994C10.1531 18.397 9.83496 19.3781 9.83496 20.3991C9.83496 21.4281 10.1531 22.4012 10.7507 23.1988C10.8749 23.369 11.0094 23.5285 11.1543 23.6774L14.0101 26.6127L14.9802 27.6097C15.8339 28.4871 16.9591 28.9657 18.162 28.9657C19.3727 28.9657 20.4979 28.4871 21.3516 27.6097L25.1775 23.6774C26.9392 21.8668 26.9392 18.9315 25.1775 17.1208Z" fill="#825EF6"/>
<path d="M35.0955 17.1208L31.2695 13.1885C30.8194 12.7259 30.284 12.3669 29.6942 12.1436C29.1897 11.9362 28.6465 11.8325 28.0877 11.8325C26.8771 11.8325 25.7518 12.3191 24.8982 13.1885L23.1288 15.0151L25.1775 17.1208C25.3431 17.291 25.4905 17.4665 25.6199 17.6473L27.4281 15.7888C27.6066 15.6053 27.8472 15.5096 28.0877 15.5096C28.3205 15.5096 28.5611 15.6053 28.7396 15.7888L32.5656 19.7211C32.9303 20.096 32.9303 20.7022 32.5656 21.0771L28.7396 25.0094C28.5611 25.1929 28.3205 25.2886 28.0877 25.2886C27.8472 25.2886 27.6066 25.1929 27.4281 25.0094L25.8061 23.3424L25.6199 23.1509L23.6021 21.0771C23.4314 20.9016 23.3383 20.6863 23.3305 20.4629C23.1365 20.2555 22.9425 20.0561 22.7562 19.8567C22.7252 19.8089 22.689 19.7637 22.6476 19.7211L21.6853 18.7321L21.5068 18.5486L21.3361 18.3731C21.0179 18.0461 20.7773 17.7988 20.6842 17.7031L20.6299 17.6473C19.458 19.2744 19.458 21.5238 20.6299 23.1509C20.7644 23.3371 20.9118 23.5125 21.0722 23.6774L23.1288 25.7911L23.9824 26.6685L24.8982 27.6097C25.7518 28.4871 26.8771 28.9657 28.0877 28.9657C29.2906 28.9657 30.4237 28.4871 31.2695 27.6097L35.0955 23.6774C36.8571 21.8668 36.8571 18.9315 35.0955 17.1208Z" fill="#42D3D8"/>
<path d="M28.0869 15.5096C27.8463 15.5096 27.6058 15.6053 27.4273 15.7888L25.6191 17.6473C25.4897 17.4665 25.3423 17.291 25.1767 17.1208L23.1279 15.0151L24.8973 13.1885C25.751 12.3191 26.8763 11.8325 28.0869 11.8325C28.6457 11.8325 29.1889 11.9362 29.6933 12.1436C31.4395 13.8984 28.0869 15.5096 28.0869 15.5096Z" fill="url(#paint1_linear_6502_515)"/>
<path d="M26.3179 6.0175C26.6904 5.30761 27.4509 4.85295 28.2968 4.94069C29.2669 5.04439 30.0274 5.88988 30.074 6.88692C30.1283 8.05944 29.2125 9.03255 28.0795 9.03255C27.4897 9.03255 26.9542 8.76136 26.5895 8.33064C26.3334 8.04349 25.9376 7.93182 25.5884 8.06742C25.5573 8.07805 25.5263 8.09135 25.4952 8.1073C24.921 8.33064 24.7269 9.06446 25.1227 9.54304C25.9221 10.5241 27.1715 11.0984 28.5451 10.9309C30.3145 10.7235 31.7347 9.25589 31.9287 7.42931C32.1926 5.03641 30.3611 3.00244 28.0795 3.00244C26.605 3.00244 25.309 3.86389 24.6649 5.11617C24.3389 5.7463 24.7968 6.49608 25.4875 6.50406C25.4927 6.50406 25.4978 6.50406 25.503 6.50406C25.8445 6.50406 26.1626 6.32858 26.3179 6.0175Z" fill="#42D3D8"/>
<path d="M144.098 28.9653V26.0688H41.0879V28.9653H144.098Z" fill="#1F2128"/>
<path d="M144.098 28.9653V26.0688H114.668L118.212 28.9653H144.098Z" fill="#42D3D8"/>
<path d="M119.654 28.9653C118.424 27.9998 117.199 27.0343 115.976 26.0688H79.459L83.0025 28.9653H119.654Z" fill="#825EF6"/>
<path d="M45.8269 24H39.6909V6.69091H45.8776C47.6186 6.69091 49.1174 7.03743 50.3739 7.73047C51.6304 8.41787 52.5967 9.40672 53.2728 10.697C53.9546 11.9873 54.2955 13.5312 54.2955 15.3286C54.2955 17.1316 53.9546 18.6811 53.2728 19.977C52.5967 21.2729 51.6247 22.2674 50.357 22.9604C49.0949 23.6535 47.5848 24 45.8269 24ZM43.3505 20.8644H45.6747C46.7566 20.8644 47.6665 20.6728 48.4046 20.2897C49.1484 19.9009 49.7062 19.3009 50.0781 18.4895C50.4556 17.6725 50.6443 16.6188 50.6443 15.3286C50.6443 14.0495 50.4556 13.0043 50.0781 12.193C49.7062 11.3816 49.1512 10.7844 48.4131 10.4012C47.675 10.0181 46.765 9.82649 45.6832 9.82649H43.3505V20.8644ZM61.4549 24.2536C60.1196 24.2536 58.9701 23.9831 58.0066 23.4422C57.0488 22.8956 56.3107 22.1237 55.7923 21.1264C55.2739 20.1235 55.0147 18.9374 55.0147 17.5683C55.0147 16.2329 55.2739 15.0609 55.7923 14.0523C56.3107 13.0438 57.0403 12.2578 57.9813 11.6943C58.9279 11.1309 60.0379 10.8491 61.3113 10.8491C62.1677 10.8491 62.965 10.9872 63.7031 11.2633C64.4468 11.5337 65.0948 11.9422 65.647 12.4888C66.2048 13.0353 66.6386 13.7227 66.9485 14.551C67.2584 15.3736 67.4134 16.3371 67.4134 17.4415V18.4303H56.4515V16.1991H64.0243C64.0243 15.6807 63.9116 15.2215 63.6862 14.8214C63.4608 14.4214 63.1481 14.1087 62.748 13.8833C62.3536 13.6523 61.8944 13.5368 61.3704 13.5368C60.8239 13.5368 60.3393 13.6636 59.9167 13.9171C59.4998 14.165 59.173 14.5003 58.9363 14.9229C58.6997 15.3398 58.5785 15.8047 58.5729 16.3174V18.4388C58.5729 19.0811 58.6912 19.6361 58.9279 20.1038C59.1702 20.5714 59.511 20.932 59.9505 21.1856C60.39 21.4391 60.9112 21.5659 61.5141 21.5659C61.9141 21.5659 62.2804 21.5096 62.6128 21.3969C62.9453 21.2842 63.2298 21.1152 63.4664 20.8898C63.7031 20.6644 63.8834 20.3883 64.0074 20.0615L67.3373 20.2813C67.1683 21.0813 66.8218 21.78 66.2978 22.3773C65.7794 22.9689 65.1089 23.4309 64.2863 23.7634C63.4693 24.0902 62.5255 24.2536 61.4549 24.2536ZM80.1172 11.0182L75.5786 24H71.5218L66.9832 11.0182H70.7865L73.4826 20.3066H73.6178L76.3055 11.0182H80.1172ZM79.1545 9.70817V6.69091H93.3703V9.70817H88.0711V24H84.4538V9.70817H79.1545ZM98.2267 24.2536C96.9139 24.2536 95.7785 23.9746 94.8206 23.4168C93.8684 22.8534 93.1331 22.0702 92.6148 21.0673C92.0964 20.0587 91.8372 18.8895 91.8372 17.5598C91.8372 16.2188 92.0964 15.0468 92.6148 14.0439C93.1331 13.0353 93.8684 12.2521 94.8206 11.6943C95.7785 11.1309 96.9139 10.8491 98.2267 10.8491C99.5395 10.8491 100.672 11.1309 101.624 11.6943C102.582 12.2521 103.32 13.0353 103.839 14.0439C104.357 15.0468 104.616 16.2188 104.616 17.5598C104.616 18.8895 104.357 20.0587 103.839 21.0673C103.32 22.0702 102.582 22.8534 101.624 23.4168C100.672 23.9746 99.5395 24.2536 98.2267 24.2536ZM98.2436 21.4645C98.8408 21.4645 99.3395 21.2955 99.7395 20.9574C100.14 20.6137 100.441 20.146 100.644 19.5544C100.852 18.9628 100.957 18.2895 100.957 17.5344C100.957 16.7794 100.852 16.1061 100.644 15.5145C100.441 14.9229 100.14 14.4552 99.7395 14.1115C99.3395 13.7678 98.8408 13.596 98.2436 13.596C97.6407 13.596 97.1336 13.7678 96.7223 14.1115C96.3166 14.4552 96.0095 14.9229 95.801 15.5145C95.5982 16.1061 95.4968 16.7794 95.4968 17.5344C95.4968 18.2895 95.5982 18.9628 95.801 19.5544C96.0095 20.146 96.3166 20.6137 96.7223 20.9574C97.1336 21.2955 97.6407 21.4645 98.2436 21.4645ZM110.341 24.2113C109.355 24.2113 108.462 23.9577 107.662 23.4506C106.867 22.9379 106.236 22.1857 105.769 21.194C105.307 20.1967 105.076 18.9741 105.076 17.526C105.076 16.0385 105.315 14.8017 105.794 13.8157C106.273 12.824 106.91 12.0831 107.704 11.5929C108.504 11.0971 109.38 10.8491 110.333 10.8491C111.059 10.8491 111.665 10.9731 112.15 11.221C112.64 11.4633 113.034 11.7676 113.333 12.1338C113.637 12.4944 113.868 12.8494 114.026 13.1987H114.136V6.69091H117.728V24H114.178V21.9209H114.026C113.857 22.2815 113.617 22.6393 113.308 22.9942C113.003 23.3436 112.606 23.6338 112.116 23.8648C111.631 24.0958 111.04 24.2113 110.341 24.2113ZM111.482 21.3462C112.062 21.3462 112.552 21.1884 112.953 20.8729C113.358 20.5517 113.668 20.1038 113.882 19.529C114.102 18.9543 114.212 18.281 114.212 17.5091C114.212 16.7372 114.105 16.0667 113.891 15.4976C113.677 14.9285 113.367 14.489 112.961 14.1791C112.555 13.8692 112.062 13.7143 111.482 13.7143C110.89 13.7143 110.392 13.8749 109.986 14.196C109.58 14.5172 109.273 14.9623 109.065 15.5314C108.856 16.1005 108.752 16.7597 108.752 17.5091C108.752 18.2641 108.856 18.9318 109.065 19.5121C109.279 20.0869 109.586 20.5376 109.986 20.8644C110.392 21.1856 110.89 21.3462 111.482 21.3462ZM122.99 24.2451C122.162 24.2451 121.423 24.1014 120.775 23.8141C120.127 23.5211 119.615 23.09 119.237 22.521C118.865 21.9462 118.679 21.2307 118.679 20.3742C118.679 19.653 118.812 19.0473 119.077 18.5571C119.341 18.0669 119.702 17.6725 120.158 17.3739C120.615 17.0752 121.133 16.8499 121.714 16.6977C122.3 16.5456 122.914 16.4385 123.556 16.3766C124.311 16.2977 124.92 16.2244 125.382 16.1568C125.844 16.0836 126.179 15.9765 126.387 15.8357C126.596 15.6948 126.7 15.4863 126.7 15.2102V15.1595C126.7 14.6242 126.531 14.2101 126.193 13.9171C125.861 13.6241 125.387 13.4776 124.773 13.4776C124.125 13.4776 123.61 13.6213 123.226 13.9087C122.843 14.1904 122.59 14.5454 122.466 14.9736L119.136 14.7031C119.305 13.9143 119.637 13.2325 120.133 12.6578C120.629 12.0775 121.268 11.6323 122.052 11.3224C122.84 11.0069 123.753 10.8491 124.79 10.8491C125.511 10.8491 126.201 10.9337 126.861 11.1027C127.526 11.2717 128.114 11.5337 128.627 11.8887C129.145 12.2437 129.554 12.7001 129.853 13.2579C130.151 13.8101 130.301 14.4721 130.301 15.244V24H126.886V22.1998H126.785C126.576 22.6055 126.297 22.9633 125.948 23.2732C125.599 23.5774 125.179 23.8169 124.689 23.9915C124.198 24.1606 123.632 24.2451 122.99 24.2451ZM124.021 21.7603C124.551 21.7603 125.018 21.6561 125.424 21.4476C125.83 21.2335 126.148 20.9461 126.379 20.5855C126.61 20.2249 126.725 19.8164 126.725 19.36V17.9824C126.613 18.0556 126.458 18.1232 126.261 18.1852C126.069 18.2416 125.852 18.2951 125.61 18.3458C125.368 18.3909 125.125 18.4331 124.883 18.4726C124.641 18.5064 124.421 18.5374 124.224 18.5656C123.801 18.6275 123.432 18.7261 123.117 18.8614C122.801 18.9966 122.556 19.1797 122.381 19.4107C122.207 19.6361 122.119 19.9178 122.119 20.2559C122.119 20.7461 122.297 21.1208 122.652 21.38C123.012 21.6335 123.469 21.7603 124.021 21.7603ZM133.452 28.8682C132.995 28.8682 132.567 28.8316 132.167 28.7583C131.773 28.6907 131.446 28.6034 131.187 28.4963L131.998 25.8087C132.421 25.9383 132.801 26.0087 133.139 26.02C133.483 26.0312 133.779 25.9523 134.026 25.7833C134.28 25.6143 134.486 25.3269 134.643 24.9212L134.855 24.3719L130.198 11.0182H133.984L136.672 20.5517H136.807L139.52 11.0182H143.332L138.286 25.403C138.044 26.1017 137.714 26.7102 137.297 27.2286C136.886 27.7526 136.365 28.1554 135.734 28.4371C135.103 28.7245 134.342 28.8682 133.452 28.8682Z" fill="#825EF6"/>
<defs>
<linearGradient id="paint0_linear_6502_515" x1="15.5703" y1="24.5065" x2="11.3045" y2="29.8427" gradientUnits="userSpaceOnUse">
<stop stop-color="#825EF6"/>
<stop offset="0.994" stop-color="#1F2128"/>
</linearGradient>
<linearGradient id="paint1_linear_6502_515" x1="28.5473" y1="18.0514" x2="26.3885" y2="20.2518" gradientUnits="userSpaceOnUse">
<stop stop-color="#42D3D8"/>
<stop offset="0.994" stop-color="#11AFB7"/>
</linearGradient>
</defs>
</svg>
